<svg width="328" height="60" viewBox="0 0 328 60" fill="none" xmlns="http://www.w3.org/2000/svg" xmlns:xlink="http://www.w3.org/1999/xlink">
 <path fill-rule="evenodd" clip-rule="evenodd" d="M5.62995 52.7353C-1.87675 45.2944 -1.87663 33.2306 5.63018 25.7899L26.019 5.5806C32.365 -0.709432 42.0439 -1.68223 49.4208 2.66222C51.7025 4.00599 51.6826 7.08859 49.8058 8.94879C47.9291 10.809 44.8657 10.6489 42.3183 9.91041C39.0563 8.96475 35.388 9.76694 32.8153 12.317L12.4264 32.5263C8.67299 36.2467 8.67294 42.2786 12.4263 45.999C16.1797 49.7195 22.2653 49.7195 26.0188 45.9991L66.7961 5.58086C74.303 -1.85989 86.4739 -1.85992 93.9808 5.58077L114.37 25.7899C121.877 33.2306 121.877 45.2946 114.37 52.7353C106.863 60.1761 94.692 60.1761 87.1851 52.7353L80.3888 45.9989L71.8935 54.4194C65.5476 60.7094 55.8686 61.6822 48.4918 57.3378C46.21 55.994 46.23 52.9114 48.1067 51.0512C49.9835 49.191 53.0469 49.3511 55.5943 50.0896C58.8563 51.0353 62.5246 50.2331 65.0973 47.683L73.8353 39.0219C77.4547 35.4344 83.3229 35.4344 86.9423 39.0219L93.9814 45.999C97.7348 49.7193 103.82 49.7193 107.574 45.999C111.327 42.2786 111.327 36.2467 107.574 32.5263L87.1847 12.3172C83.4312 8.59686 77.3458 8.59688 73.5923 12.3172L32.8151 52.7355C25.3081 60.1764 13.1368 60.1763 5.62995 52.7353Z" fill="black">
 </path>
 <path d="M196.778 10.7998C192.054 10.7998 188.476 12.4907 186.114 15.8725C184.039 12.4907 180.746 10.7998 176.381 10.7998C171.872 10.7998 168.58 12.3498 166.433 15.5203V11.7862H157.2V47.0134H166.433V27.2157C166.433 22.0725 169.081 19.2543 173.16 19.2543C176.953 19.2543 179.172 21.7203 179.172 25.9475V47.0134H188.404V27.2157C188.404 22.0725 190.838 19.2543 195.06 19.2543C198.853 19.2543 201.072 21.7203 201.072 25.9475V47.0134H210.304V25.3134C210.304 16.5066 205.008 10.7998 196.778 10.7998Z" fill="black">
 </path>
 <path d="M244.626 15.943C241.835 12.4907 237.97 10.7998 232.96 10.7998C228.165 10.7998 224.086 12.6316 220.651 16.2248C217.287 19.818 215.569 24.1862 215.569 29.3998C215.569 34.6134 217.287 39.0521 220.651 42.6453C224.086 46.2384 228.165 47.9998 232.96 47.9998C237.97 47.9998 241.835 46.3089 244.626 42.8566V47.0134H253.858V11.7862H244.626V15.943ZM227.593 36.5862C225.732 34.6839 224.802 32.2884 224.802 29.3998C224.802 26.5112 225.732 24.1157 227.593 22.2839C229.453 20.3816 231.815 19.4657 234.678 19.4657C237.541 19.4657 239.903 20.3816 241.763 22.2839C243.696 24.1157 244.626 26.5112 244.626 29.3998C244.626 32.2884 243.696 34.6839 241.763 36.5862C239.903 38.418 237.541 39.3339 234.678 39.3339C231.815 39.3339 229.453 38.418 227.593 36.5862Z" fill="black">
 </path>
 <path d="M287.924 17.8453V11.7862H261.085V20.3112H275.471L260.37 40.9544V47.0134H288.639V38.4884H272.751L287.924 17.8453Z" fill="black">
 </path>
 <path d="M327.242 33.1339C327.457 31.7953 327.6 30.5975 327.6 29.3998C327.6 24.1157 325.883 19.7475 322.447 16.1543C319.084 12.5612 314.718 10.7998 309.493 10.7998C303.982 10.7998 299.402 12.5612 295.895 16.1543C292.388 19.6771 290.599 24.1157 290.599 29.3998C290.599 34.7544 292.388 39.193 295.967 42.7157C299.545 46.2384 304.269 47.9998 310.209 47.9998C317.08 47.9998 322.304 45.4634 325.811 40.4612L318.368 36.2339C316.579 38.5589 313.859 39.7566 310.352 39.7566C304.841 39.7566 301.478 37.5725 300.261 33.1339H327.242ZM300.118 26.0884C301.191 21.5794 304.555 18.9725 309.493 18.9725C313.716 18.9725 317.294 21.2975 318.368 26.0884H300.118Z" fill="black">
 </path>
</svg>